<svg xmlns="http://www.w3.org/2000/svg" xmlns:xlink="http://www.w3.org/1999/xlink" width="200" zoomAndPan="magnify" viewBox="0 0 150 74.999997" height="100" preserveAspectRatio="xMidYMid meet" version="1.0"><defs><g/><clipPath id="ecb7890222"><path d="M 4.753906 2.644531 L 34.753906 2.644531 L 34.753906 72.394531 L 4.753906 72.394531 Z M 4.753906 2.644531 " clip-rule="nonzero"/></clipPath></defs><g clip-path="url(#ecb7890222)"><path fill="#81de76" d="M 14.328125 2.671875 L 4.753906 2.671875 L 4.753906 43.316406 C 5.269531 43.429688 5.761719 43.609375 6.226562 43.863281 C 6.691406 44.117188 7.109375 44.433594 7.484375 44.808594 C 7.859375 45.179688 8.171875 45.601562 8.425781 46.066406 C 8.679688 46.53125 8.859375 47.019531 8.972656 47.539062 L 9.105469 47.539062 L 9.105469 49.859375 L 8.980469 49.859375 C 8.867188 50.378906 8.683594 50.867188 8.429688 51.332031 C 8.175781 51.796875 7.863281 52.21875 7.488281 52.59375 C 7.113281 52.96875 6.691406 53.28125 6.226562 53.535156 C 5.761719 53.789062 5.273438 53.96875 4.753906 54.082031 L 4.753906 72.316406 L 14.328125 72.316406 C 14.460938 71.703125 14.695312 71.125 15.023438 70.589844 C 15.351562 70.054688 15.761719 69.585938 16.253906 69.191406 C 16.742188 68.796875 17.28125 68.492188 17.875 68.28125 C 18.46875 68.070312 19.082031 67.964844 19.710938 67.964844 C 20.339844 67.964844 20.953125 68.070312 21.542969 68.28125 C 22.136719 68.492188 22.679688 68.792969 23.167969 69.191406 C 23.660156 69.585938 24.070312 70.050781 24.398438 70.589844 C 24.730469 71.125 24.960938 71.703125 25.09375 72.316406 L 34.667969 72.316406 L 34.667969 54.082031 C 34.152344 53.96875 33.660156 53.789062 33.195312 53.535156 C 32.730469 53.28125 32.3125 52.964844 31.9375 52.59375 C 31.5625 52.21875 31.25 51.796875 30.996094 51.332031 C 30.742188 50.867188 30.558594 50.378906 30.445312 49.859375 L 30.320312 49.859375 L 30.320312 47.539062 L 30.445312 47.539062 C 30.558594 47.019531 30.742188 46.53125 30.996094 46.066406 C 31.246094 45.601562 31.5625 45.179688 31.9375 44.808594 C 32.308594 44.433594 32.730469 44.117188 33.195312 43.863281 C 33.65625 43.609375 34.148438 43.429688 34.667969 43.316406 L 34.667969 2.671875 L 25.089844 2.671875 C 24.953125 3.285156 24.71875 3.855469 24.386719 4.386719 C 24.054688 4.917969 23.644531 5.378906 23.15625 5.769531 C 22.667969 6.164062 22.128906 6.460938 21.535156 6.667969 C 20.945312 6.875 20.335938 6.980469 19.710938 6.980469 C 19.082031 6.980469 18.476562 6.875 17.882812 6.667969 C 17.292969 6.460938 16.753906 6.164062 16.265625 5.769531 C 15.773438 5.378906 15.363281 4.917969 15.03125 4.386719 C 14.703125 3.855469 14.46875 3.285156 14.328125 2.671875 Z M 27.96875 47.539062 L 27.96875 49.859375 L 25.605469 49.859375 L 25.605469 47.539062 Z M 23.253906 47.539062 L 23.253906 49.859375 L 20.886719 49.859375 L 20.886719 47.539062 Z M 18.539062 47.539062 L 18.539062 49.859375 L 16.171875 49.859375 L 16.171875 47.539062 Z M 13.820312 47.539062 L 13.820312 49.859375 L 11.457031 49.859375 L 11.457031 47.539062 Z M 13.820312 47.539062 " fill-opacity="1" fill-rule="nonzero"/></g><g fill="#000000" fill-opacity="1"><g transform="translate(7.938413, 40.461794)"><g><path d="M 21.921875 -11.203125 C 21.921875 -10.546875 21.878906 -9.847656 21.796875 -9.109375 L 5.171875 -9.109375 C 5.296875 -7.066406 5.992188 -5.46875 7.265625 -4.3125 C 8.546875 -3.15625 10.097656 -2.578125 11.921875 -2.578125 C 13.421875 -2.578125 14.671875 -2.925781 15.671875 -3.625 C 16.671875 -4.320312 17.375 -5.253906 17.78125 -6.421875 L 21.5 -6.421875 C 20.9375 -4.421875 19.820312 -2.789062 18.15625 -1.53125 C 16.488281 -0.28125 14.410156 0.34375 11.921875 0.34375 C 9.953125 0.34375 8.1875 -0.0976562 6.625 -0.984375 C 5.070312 -1.867188 3.851562 -3.128906 2.96875 -4.765625 C 2.082031 -6.398438 1.640625 -8.296875 1.640625 -10.453125 C 1.640625 -12.597656 2.066406 -14.476562 2.921875 -16.09375 C 3.785156 -17.71875 4.992188 -18.96875 6.546875 -19.84375 C 8.109375 -20.71875 9.898438 -21.15625 11.921875 -21.15625 C 13.898438 -21.15625 15.648438 -20.722656 17.171875 -19.859375 C 18.691406 -19.003906 19.863281 -17.820312 20.6875 -16.3125 C 21.507812 -14.800781 21.921875 -13.097656 21.921875 -11.203125 Z M 18.34375 -11.921875 C 18.34375 -13.242188 18.050781 -14.378906 17.46875 -15.328125 C 16.882812 -16.273438 16.09375 -16.992188 15.09375 -17.484375 C 14.09375 -17.984375 12.988281 -18.234375 11.78125 -18.234375 C 10.03125 -18.234375 8.539062 -17.675781 7.3125 -16.5625 C 6.082031 -15.445312 5.378906 -13.898438 5.203125 -11.921875 Z M 18.34375 -11.921875 "/></g></g></g><g fill="#ffffff" fill-opacity="0.4"><g transform="translate(33.172299, 41.989496)"><g><path d="M 10.671875 -3.1875 L 17.140625 -20.828125 L 20.828125 -20.828125 L 12.65625 0 L 8.625 0 L 0.453125 -20.828125 L 4.1875 -20.828125 Z M 10.671875 -3.1875 "/></g></g></g><g fill="#ffffff" fill-opacity="0.4"><g transform="translate(54.484345, 41.989496)"><g><path d="M 21.921875 -11.203125 C 21.921875 -10.546875 21.882812 -9.851562 21.8125 -9.125 L 5.171875 -9.125 C 5.296875 -7.070312 6 -5.46875 7.28125 -4.3125 C 8.5625 -3.15625 10.113281 -2.578125 11.9375 -2.578125 C 13.425781 -2.578125 14.671875 -2.925781 15.671875 -3.625 C 16.671875 -4.320312 17.375 -5.253906 17.78125 -6.421875 L 21.515625 -6.421875 C 20.953125 -4.421875 19.832031 -2.789062 18.15625 -1.53125 C 16.488281 -0.28125 14.414062 0.34375 11.9375 0.34375 C 9.957031 0.34375 8.1875 -0.0976562 6.625 -0.984375 C 5.070312 -1.867188 3.851562 -3.128906 2.96875 -4.765625 C 2.082031 -6.398438 1.640625 -8.296875 1.640625 -10.453125 C 1.640625 -12.609375 2.066406 -14.492188 2.921875 -16.109375 C 3.785156 -17.734375 4.992188 -18.984375 6.546875 -19.859375 C 8.109375 -20.734375 9.90625 -21.171875 11.9375 -21.171875 C 13.90625 -21.171875 15.648438 -20.738281 17.171875 -19.875 C 18.691406 -19.007812 19.863281 -17.820312 20.6875 -16.3125 C 21.507812 -14.8125 21.921875 -13.109375 21.921875 -11.203125 Z M 18.359375 -11.9375 C 18.359375 -13.25 18.066406 -14.378906 17.484375 -15.328125 C 16.898438 -16.285156 16.109375 -17.007812 15.109375 -17.5 C 14.109375 -17.988281 13 -18.234375 11.78125 -18.234375 C 10.03125 -18.234375 8.539062 -17.675781 7.3125 -16.5625 C 6.082031 -15.445312 5.378906 -13.90625 5.203125 -11.9375 Z M 18.359375 -11.9375 "/></g></g></g><g fill="#ffffff" fill-opacity="0.4"><g transform="translate(78.037761, 41.989496)"><g><path d="M 13.078125 -21.203125 C 15.609375 -21.203125 17.65625 -20.4375 19.21875 -18.90625 C 20.789062 -17.375 21.578125 -15.164062 21.578125 -12.28125 L 21.578125 0 L 18.15625 0 L 18.15625 -11.78125 C 18.15625 -13.851562 17.632812 -15.441406 16.59375 -16.546875 C 15.5625 -17.648438 14.144531 -18.203125 12.34375 -18.203125 C 10.519531 -18.203125 9.070312 -17.628906 8 -16.484375 C 6.925781 -15.347656 6.390625 -13.691406 6.390625 -11.515625 L 6.390625 0 L 2.921875 0 L 2.921875 -20.828125 L 6.390625 -20.828125 L 6.390625 -17.859375 C 7.066406 -18.921875 7.992188 -19.742188 9.171875 -20.328125 C 10.347656 -20.910156 11.648438 -21.203125 13.078125 -21.203125 Z M 13.078125 -21.203125 "/></g></g></g><g fill="#ffffff" fill-opacity="0.4"><g transform="translate(102.350966, 41.989496)"><g><path d="M 7.140625 -17.96875 L 7.140625 -5.703125 C 7.140625 -4.691406 7.351562 -3.972656 7.78125 -3.546875 C 8.21875 -3.128906 8.96875 -2.921875 10.03125 -2.921875 L 12.578125 -2.921875 L 12.578125 0 L 9.46875 0 C 7.539062 0 6.09375 -0.441406 5.125 -1.328125 C 4.164062 -2.210938 3.6875 -3.671875 3.6875 -5.703125 L 3.6875 -17.96875 L 0.984375 -17.96875 L 0.984375 -20.828125 L 3.6875 -20.828125 L 3.6875 -26.0625 L 7.140625 -26.0625 L 7.140625 -20.828125 L 12.578125 -20.828125 L 12.578125 -17.96875 Z M 7.140625 -17.96875 "/></g></g></g><g fill="#ffffff" fill-opacity="0.4"><g transform="translate(116.179101, 41.989496)"><g><path d="M 6.390625 -28.125 L 6.390625 0 L 2.921875 0 L 2.921875 -28.125 Z M 6.390625 -28.125 "/></g></g></g><g fill="#ffffff" fill-opacity="0.4"><g transform="translate(125.524489, 41.989496)"><g><path d="M 20.859375 -20.828125 L 8.328125 9.796875 L 4.75 9.796875 L 8.859375 -0.234375 L 0.453125 -20.828125 L 4.296875 -20.828125 L 10.828125 -3.953125 L 17.296875 -20.828125 Z M 20.859375 -20.828125 "/></g></g></g><g fill="#000000" fill-opacity="1"><g transform="translate(31.493138, 40.310336)"><g><path d="M 10.671875 -3.1875 L 17.140625 -20.828125 L 20.828125 -20.828125 L 12.65625 0 L 8.625 0 L 0.453125 -20.828125 L 4.1875 -20.828125 Z M 10.671875 -3.1875 "/></g></g></g><g fill="#000000" fill-opacity="1"><g transform="translate(52.805184, 40.310336)"><g><path d="M 21.921875 -11.203125 C 21.921875 -10.546875 21.882812 -9.851562 21.8125 -9.125 L 5.171875 -9.125 C 5.296875 -7.070312 6 -5.46875 7.28125 -4.3125 C 8.5625 -3.15625 10.113281 -2.578125 11.9375 -2.578125 C 13.425781 -2.578125 14.671875 -2.925781 15.671875 -3.625 C 16.671875 -4.320312 17.375 -5.253906 17.78125 -6.421875 L 21.515625 -6.421875 C 20.953125 -4.421875 19.832031 -2.789062 18.15625 -1.53125 C 16.488281 -0.28125 14.414062 0.34375 11.9375 0.34375 C 9.957031 0.34375 8.1875 -0.0976562 6.625 -0.984375 C 5.070312 -1.867188 3.851562 -3.128906 2.96875 -4.765625 C 2.082031 -6.398438 1.640625 -8.296875 1.640625 -10.453125 C 1.640625 -12.609375 2.066406 -14.492188 2.921875 -16.109375 C 3.785156 -17.734375 4.992188 -18.984375 6.546875 -19.859375 C 8.109375 -20.734375 9.90625 -21.171875 11.9375 -21.171875 C 13.90625 -21.171875 15.648438 -20.738281 17.171875 -19.875 C 18.691406 -19.007812 19.863281 -17.820312 20.6875 -16.3125 C 21.507812 -14.8125 21.921875 -13.109375 21.921875 -11.203125 Z M 18.359375 -11.9375 C 18.359375 -13.25 18.066406 -14.378906 17.484375 -15.328125 C 16.898438 -16.285156 16.109375 -17.007812 15.109375 -17.5 C 14.109375 -17.988281 13 -18.234375 11.78125 -18.234375 C 10.03125 -18.234375 8.539062 -17.675781 7.3125 -16.5625 C 6.082031 -15.445312 5.378906 -13.90625 5.203125 -11.9375 Z M 18.359375 -11.9375 "/></g></g></g><g fill="#000000" fill-opacity="1"><g transform="translate(76.3586, 40.310336)"><g><path d="M 13.078125 -21.203125 C 15.609375 -21.203125 17.65625 -20.4375 19.21875 -18.90625 C 20.789062 -17.375 21.578125 -15.164062 21.578125 -12.28125 L 21.578125 0 L 18.15625 0 L 18.15625 -11.78125 C 18.15625 -13.851562 17.632812 -15.441406 16.59375 -16.546875 C 15.5625 -17.648438 14.144531 -18.203125 12.34375 -18.203125 C 10.519531 -18.203125 9.070312 -17.628906 8 -16.484375 C 6.925781 -15.347656 6.390625 -13.691406 6.390625 -11.515625 L 6.390625 0 L 2.921875 0 L 2.921875 -20.828125 L 6.390625 -20.828125 L 6.390625 -17.859375 C 7.066406 -18.921875 7.992188 -19.742188 9.171875 -20.328125 C 10.347656 -20.910156 11.648438 -21.203125 13.078125 -21.203125 Z M 13.078125 -21.203125 "/></g></g></g><g fill="#000000" fill-opacity="1"><g transform="translate(100.671805, 40.310336)"><g><path d="M 7.140625 -17.96875 L 7.140625 -5.703125 C 7.140625 -4.691406 7.351562 -3.972656 7.78125 -3.546875 C 8.21875 -3.128906 8.96875 -2.921875 10.03125 -2.921875 L 12.578125 -2.921875 L 12.578125 0 L 9.46875 0 C 7.539062 0 6.09375 -0.441406 5.125 -1.328125 C 4.164062 -2.210938 3.6875 -3.671875 3.6875 -5.703125 L 3.6875 -17.96875 L 0.984375 -17.96875 L 0.984375 -20.828125 L 3.6875 -20.828125 L 3.6875 -26.0625 L 7.140625 -26.0625 L 7.140625 -20.828125 L 12.578125 -20.828125 L 12.578125 -17.96875 Z M 7.140625 -17.96875 "/></g></g></g><g fill="#000000" fill-opacity="1"><g transform="translate(114.49994, 40.310336)"><g><path d="M 6.390625 -28.125 L 6.390625 0 L 2.921875 0 L 2.921875 -28.125 Z M 6.390625 -28.125 "/></g></g></g><g fill="#000000" fill-opacity="1"><g transform="translate(123.845327, 40.310336)"><g><path d="M 20.859375 -20.828125 L 8.328125 9.796875 L 4.75 9.796875 L 8.859375 -0.234375 L 0.453125 -20.828125 L 4.296875 -20.828125 L 10.828125 -3.953125 L 17.296875 -20.828125 Z M 20.859375 -20.828125 "/></g></g></g></svg>