<svg xmlns="http://www.w3.org/2000/svg" xmlns:xlink="http://www.w3.org/1999/xlink" width="100" zoomAndPan="magnify" viewBox="0 0 75 149.999998" height="200" preserveAspectRatio="xMidYMid meet" version="1.0"><defs><g/><clipPath id="7c88a802fd"><path d="M 6.425781 2.722656 L 68.675781 2.722656 L 68.675781 147.472656 L 6.425781 147.472656 Z M 6.425781 2.722656 " clip-rule="nonzero"/></clipPath></defs><g clip-path="url(#7c88a802fd)"><path fill="#81de76" d="M 26.316406 2.667969 L 6.425781 2.667969 L 6.425781 87.089844 C 7.5 87.324219 8.519531 87.703125 9.484375 88.230469 C 10.449219 88.757812 11.320312 89.410156 12.097656 90.1875 C 12.875 90.964844 13.527344 91.835938 14.054688 92.800781 C 14.578125 93.765625 14.957031 94.785156 15.191406 95.859375 L 15.46875 95.859375 L 15.46875 100.683594 L 15.203125 100.683594 C 14.96875 101.757812 14.589844 102.777344 14.0625 103.742188 C 13.535156 104.710938 12.882812 105.582031 12.105469 106.359375 C 11.328125 107.136719 10.457031 107.789062 9.488281 108.316406 C 8.523438 108.839844 7.503906 109.21875 6.425781 109.453125 L 6.425781 147.328125 L 26.316406 147.328125 C 26.453125 146.695312 26.644531 146.078125 26.886719 145.472656 C 27.128906 144.871094 27.417969 144.292969 27.757812 143.742188 C 28.097656 143.1875 28.484375 142.667969 28.910156 142.179688 C 29.339844 141.695312 29.804688 141.246094 30.308594 140.835938 C 30.816406 140.429688 31.351562 140.066406 31.917969 139.75 C 32.484375 139.433594 33.070312 139.164062 33.683594 138.949219 C 34.296875 138.730469 34.921875 138.566406 35.558594 138.457031 C 36.199219 138.34375 36.84375 138.289062 37.492188 138.289062 C 38.140625 138.289062 38.785156 138.34375 39.425781 138.457031 C 40.066406 138.566406 40.691406 138.730469 41.304688 138.945312 C 41.917969 139.164062 42.507812 139.429688 43.074219 139.746094 C 43.640625 140.0625 44.175781 140.425781 44.679688 140.835938 C 45.183594 141.242188 45.652344 141.691406 46.078125 142.179688 C 46.507812 142.667969 46.894531 143.1875 47.234375 143.742188 C 47.574219 144.292969 47.863281 144.871094 48.105469 145.472656 C 48.347656 146.078125 48.539062 146.695312 48.675781 147.328125 L 68.566406 147.328125 L 68.566406 109.453125 C 67.492188 109.21875 66.46875 108.839844 65.503906 108.3125 C 64.539062 107.785156 63.667969 107.132812 62.890625 106.355469 C 62.113281 105.578125 61.460938 104.707031 60.933594 103.742188 C 60.40625 102.777344 60.027344 101.757812 59.796875 100.683594 L 59.53125 100.683594 L 59.53125 95.859375 L 59.796875 95.859375 C 60.027344 94.785156 60.40625 93.765625 60.933594 92.800781 C 61.460938 91.835938 62.109375 90.964844 62.886719 90.1875 C 63.664062 89.410156 64.535156 88.757812 65.5 88.230469 C 66.464844 87.703125 67.484375 87.324219 68.558594 87.089844 L 68.558594 2.667969 L 48.667969 2.667969 C 48.527344 3.296875 48.332031 3.910156 48.089844 4.507812 C 47.84375 5.105469 47.550781 5.679688 47.207031 6.226562 C 46.867188 6.773438 46.480469 7.289062 46.050781 7.773438 C 45.621094 8.253906 45.15625 8.699219 44.652344 9.101562 C 44.148438 9.507812 43.613281 9.863281 43.046875 10.179688 C 42.484375 10.492188 41.894531 10.753906 41.285156 10.96875 C 40.675781 11.183594 40.054688 11.34375 39.417969 11.453125 C 38.78125 11.5625 38.140625 11.613281 37.492188 11.613281 C 36.847656 11.613281 36.207031 11.5625 35.570312 11.453125 C 34.933594 11.34375 34.308594 11.183594 33.699219 10.96875 C 33.089844 10.753906 32.503906 10.492188 31.9375 10.179688 C 31.375 9.863281 30.839844 9.507812 30.335938 9.101562 C 29.832031 8.699219 29.363281 8.253906 28.933594 7.773438 C 28.507812 7.289062 28.121094 6.773438 27.777344 6.226562 C 27.4375 5.679688 27.144531 5.105469 26.898438 4.507812 C 26.652344 3.910156 26.460938 3.296875 26.316406 2.667969 Z M 54.648438 95.859375 L 54.648438 100.683594 L 49.734375 100.683594 L 49.734375 95.859375 Z M 44.851562 95.859375 L 44.851562 100.683594 L 39.941406 100.683594 L 39.941406 95.859375 Z M 35.058594 95.859375 L 35.058594 100.683594 L 30.144531 100.683594 L 30.144531 95.859375 Z M 25.261719 95.859375 L 25.261719 100.683594 L 20.351562 100.683594 L 20.351562 95.859375 Z M 25.261719 95.859375 " fill-opacity="1" fill-rule="nonzero"/></g><g fill="#000000" fill-opacity="1"><g transform="translate(13.043403, 81.150391)"><g><path d="M 45.515625 -23.265625 C 45.515625 -21.898438 45.4375 -20.457031 45.28125 -18.9375 L 10.734375 -18.9375 C 10.992188 -14.675781 12.453125 -11.347656 15.109375 -8.953125 C 17.765625 -6.554688 20.984375 -5.359375 24.765625 -5.359375 C 27.867188 -5.359375 30.457031 -6.082031 32.53125 -7.53125 C 34.613281 -8.976562 36.078125 -10.910156 36.921875 -13.328125 L 44.65625 -13.328125 C 43.5 -9.171875 41.179688 -5.789062 37.703125 -3.1875 C 34.234375 -0.59375 29.921875 0.703125 24.765625 0.703125 C 20.671875 0.703125 17.003906 -0.210938 13.765625 -2.046875 C 10.535156 -3.890625 8 -6.503906 6.15625 -9.890625 C 4.3125 -13.285156 3.390625 -17.21875 3.390625 -21.6875 C 3.390625 -26.164062 4.28125 -30.085938 6.0625 -33.453125 C 7.851562 -36.816406 10.363281 -39.40625 13.59375 -41.21875 C 16.832031 -43.03125 20.554688 -43.9375 24.765625 -43.9375 C 28.867188 -43.9375 32.5 -43.039062 35.65625 -41.25 C 38.8125 -39.46875 41.242188 -37.007812 42.953125 -33.875 C 44.660156 -30.75 45.515625 -27.210938 45.515625 -23.265625 Z M 38.109375 -24.765625 C 38.109375 -27.503906 37.5 -29.859375 36.28125 -31.828125 C 35.070312 -33.804688 33.429688 -35.304688 31.359375 -36.328125 C 29.285156 -37.359375 26.984375 -37.875 24.453125 -37.875 C 20.828125 -37.875 17.738281 -36.710938 15.1875 -34.390625 C 12.632812 -32.078125 11.175781 -28.867188 10.8125 -24.765625 Z M 38.109375 -24.765625 "/></g></g></g></svg>